<svg width="729" height="376" viewBox="0 0 729 376" fill="none" xmlns="http://www.w3.org/2000/svg">
<path d="M181.474 40.1314C188.151 42.2365 193.16 49.1566 197.941 54.0734C198.746 54.8998 198.746 54.8998 199.566 55.7428C201.802 58.0426 204.037 60.342 206.248 62.6647C207.882 64.3773 209.535 66.0702 211.191 67.7609C211.687 68.291 212.183 68.821 212.694 69.3671C215.53 72.2391 215.53 72.2391 219.374 72.9108C222.274 71.7188 224.784 70.2991 227.43 68.6125C228.474 67.9525 229.518 67.2925 230.594 66.6125C232.214 65.5722 232.214 65.5722 233.867 64.5109C236.013 63.1487 238.159 61.7867 240.305 60.425C241.252 59.8186 242.2 59.2123 243.176 58.5876C244.064 58.026 244.952 57.4645 245.867 56.8859C246.766 56.2973 247.664 55.7087 248.59 55.1022C249.717 54.5002 249.717 54.5002 250.867 53.8859C251.857 54.3809 251.857 54.3809 252.867 54.8859C252.44 55.3381 252.013 55.7902 251.573 56.256C241.289 67.1434 241.289 67.1434 231.117 78.1359C230.264 79.0666 229.41 79.9973 228.531 80.9562C226.575 83.1071 224.635 85.2683 222.703 87.4406C221.633 88.6307 220.563 89.8208 219.492 91.0109C219.004 91.5681 218.516 92.1253 218.013 92.6994C215.25 95.7545 213.002 98.1377 208.867 98.8859C203.98 96.9406 200.477 92.7211 196.867 89.0109C196.264 88.3986 195.661 87.7863 195.039 87.1554C193.859 85.9572 192.68 84.757 191.504 83.5549C189.308 81.3156 187.089 79.0997 184.867 76.8859C184.207 76.2259 183.547 75.5659 182.867 74.8859C179.292 74.9496 177.947 75.8151 175.255 78.2026C174.321 79.2045 173.397 80.2154 172.48 81.2336C171.449 82.3249 170.418 83.4154 169.385 84.5051C167.779 86.2224 166.182 87.9463 164.601 89.6869C155.861 99.2566 155.861 99.2566 151.282 100.702C148.657 100.761 146.432 100.438 143.867 99.8859C142.931 99.7468 141.995 99.6076 141.031 99.4643C138.043 99.0067 135.085 98.46 132.117 97.8859C123.561 96.1747 123.561 96.1747 114.867 95.8859C112.698 99.4969 112.292 102.957 111.754 107.101C111.556 108.523 111.358 109.946 111.158 111.368C110.853 113.597 110.554 115.825 110.271 118.057C109.992 120.22 109.688 122.379 109.379 124.538C109.123 126.472 109.123 126.472 108.862 128.444C107.353 133.665 104.538 135.892 99.9604 138.615C98.9165 139.121 97.8725 139.627 96.7969 140.148C95.6535 140.709 94.5101 141.27 93.332 141.849C91.5551 142.702 91.5551 142.702 89.7422 143.573C87.3837 144.72 85.0279 145.871 82.6719 147.023C81.1093 147.776 81.1093 147.776 79.5151 148.545C76.7427 149.883 76.7427 149.883 73.8672 151.886C74.4119 156.62 75.7507 159.981 78.0625 164.132C78.7024 165.311 79.3417 166.49 79.9805 167.669C80.9851 169.501 81.9953 171.329 83.0161 173.152C84.0064 174.928 84.973 176.716 85.9375 178.507C86.8156 180.091 86.8156 180.091 87.7114 181.708C89.4804 186.572 88.5833 190.11 86.6838 194.82C86.1991 195.764 85.7143 196.707 85.2148 197.679C84.6857 198.721 84.1565 199.763 83.6113 200.837C83.0564 201.905 82.5014 202.973 81.9297 204.073C81.3786 205.153 80.8275 206.233 80.2598 207.345C79.2377 209.346 78.2116 211.344 77.1799 213.34C76.7467 214.18 76.3135 215.02 75.8672 215.886C75.4591 216.554 75.051 217.222 74.6306 217.911C73.5509 220.704 73.764 222.11 74.8672 224.886C77.3055 226.711 77.3055 226.711 80.4414 228.077C81.5842 228.63 82.7269 229.182 83.9043 229.751C85.1207 230.318 86.3375 230.884 87.5547 231.448C89.9144 232.571 92.2726 233.697 94.6289 234.827C95.6804 235.319 96.7319 235.811 97.8152 236.318C106.358 240.707 106.358 240.707 108.117 244.78C108.408 246.141 108.65 247.512 108.867 248.886C109.027 249.885 109.187 250.885 109.352 251.915C110.072 256.696 110.721 261.487 111.367 266.278C111.532 267.452 111.697 268.626 111.867 269.835C112.012 270.901 112.156 271.966 112.305 273.064C112.827 275.685 113.538 277.587 114.867 279.886C122.396 279.405 129.74 278.31 137.144 276.902C139.38 276.5 141.616 276.19 143.867 275.886C144.648 275.724 145.428 275.563 146.232 275.397C150.741 274.823 153.048 275.284 156.765 278.016C159.97 280.917 162.885 284.078 165.805 287.261C167.342 288.886 168.887 290.504 170.432 292.121C171.824 293.586 173.2 295.066 174.574 296.548C176.834 299.012 176.834 299.012 179.867 300.886C183.874 300.675 185.79 298.269 188.457 295.484C189.324 294.593 190.191 293.703 191.084 292.786C192.894 290.898 194.704 289.01 196.514 287.122C197.382 286.231 198.25 285.339 199.145 284.421C199.931 283.6 200.717 282.779 201.527 281.933C203.96 279.805 205.75 278.71 208.867 277.886C211.629 278.825 213.927 279.809 216.492 281.136C217.234 281.503 217.977 281.87 218.741 282.248C221.129 283.438 223.499 284.657 225.867 285.886C226.629 286.279 227.392 286.673 228.177 287.078C232.897 289.522 237.592 292.011 242.282 294.512C247.028 297.034 251.792 299.52 256.555 302.011C258.35 302.951 260.146 303.891 261.941 304.831C263.25 305.516 264.559 306.201 265.867 306.886C265.867 307.546 265.867 308.206 265.867 308.886C264.227 308.613 264.227 308.613 262.553 308.335C258.449 307.655 254.343 306.987 250.236 306.322C248.468 306.035 246.7 305.744 244.932 305.449C242.374 305.024 239.814 304.61 237.254 304.198C236.479 304.067 235.705 303.936 234.907 303.801C232.563 303.43 230.227 303.139 227.867 302.886C226.504 302.725 226.504 302.725 225.114 302.561C219.982 302.213 216.734 302.388 212.744 305.808C211.446 307.128 210.176 308.478 208.934 309.851C208.248 310.559 207.563 311.267 206.857 311.996C204.687 314.247 202.558 316.532 200.43 318.823C198.27 321.103 196.103 323.375 193.927 325.64C192.58 327.048 191.243 328.465 189.917 329.894C189.01 330.855 189.01 330.855 188.084 331.835C187.558 332.401 187.031 332.967 186.489 333.551C184.602 335.104 183.282 335.579 180.867 335.886C175.892 333.771 172.7 329.674 169.16 325.741C167.839 324.327 166.515 322.915 165.189 321.505C163.115 319.296 161.059 317.078 159.044 314.815C152.086 306.424 152.086 306.424 142.795 301.398C137.91 301.19 133.516 302.513 128.867 303.886C126.718 304.271 124.565 304.63 122.406 304.956C119.434 305.481 116.464 306.016 113.496 306.562C97.7405 309.323 97.7405 309.323 92.8672 306.886C92.0925 304.109 92.0925 304.109 91.3789 300.394C91.2506 299.726 91.1223 299.059 90.9902 298.371C90.0657 293.394 89.3758 288.402 88.7617 283.378C88.5802 281.946 88.3986 280.513 88.2168 279.081C87.9405 276.901 87.6756 274.723 87.4421 272.538C86.8015 264.341 86.8015 264.341 83.479 257.071C81.3532 255.668 79.24 254.821 76.8672 253.886C74.9971 252.969 73.1479 252.014 71.2956 251.062C67.7577 249.251 64.185 247.511 60.6172 245.761C57.7346 244.346 54.8548 242.926 51.9766 241.503C51.3223 241.184 50.6681 240.865 49.9941 240.537C42.8779 237.017 42.8779 237.017 40.8672 234.886C39.945 229.632 42.0568 225.772 44.4805 221.257C45.0358 220.189 45.0358 220.189 45.6023 219.099C46.7834 216.834 47.9814 214.579 49.1797 212.323C49.9744 210.804 50.768 209.284 51.5605 207.763C57.3296 196.735 57.3296 196.735 59.6199 193.119C61.5357 189.689 60.8321 187.644 59.8672 183.886C58.5441 180.664 56.9797 177.596 55.3672 174.511C54.7042 173.208 54.7042 173.208 54.0278 171.88C51.8155 167.555 49.5425 163.268 47.2031 159.011C46.7887 158.251 46.3743 157.491 45.9473 156.708C45.1638 155.279 44.3688 153.857 43.5605 152.443C42.0082 149.622 40.8668 146.885 40 143.784C41.2772 139.516 43.8592 138.558 47.6768 136.493C48.7296 135.963 49.7824 135.432 50.8672 134.886C52.0583 134.276 53.2494 133.666 54.4404 133.056C58.3574 131.069 62.2978 129.131 66.2422 127.198C68.919 125.887 71.5931 124.57 74.2656 123.249C75.4379 122.675 76.6101 122.1 77.8179 121.508C82.7087 119.138 82.7087 119.138 85.6005 114.844C85.7099 114.063 85.8194 113.282 85.9321 112.478C86.0655 111.59 86.1989 110.702 86.3363 109.788C86.4625 108.831 86.5887 107.875 86.7188 106.89C86.8637 105.905 87.0087 104.92 87.1581 103.905C87.6191 100.755 88.0569 97.6021 88.4922 94.4484C88.9382 91.299 89.3892 88.1505 89.8477 85.0028C90.1319 83.0441 90.4083 81.0842 90.6759 79.1231C90.8666 77.7867 90.8666 77.7867 91.061 76.4233C91.1689 75.6418 91.2767 74.8603 91.3878 74.0551C91.8969 71.7516 92.7288 69.9436 93.8672 67.8859C104.344 67.3663 114.326 69.5282 124.583 71.3979C126.973 71.8305 129.365 72.2512 131.758 72.6711C132.845 72.8757 132.846 72.8757 133.955 73.0844C138.243 73.8336 141.73 74.3281 145.867 72.8859C148.668 70.6758 151.059 68.1329 153.496 65.5344C154.958 64.0291 156.419 62.5239 157.881 61.0187C160.165 58.6348 162.444 56.2459 164.72 53.8547C166.925 51.548 169.147 49.2595 171.371 46.9718C172.048 46.248 172.726 45.5241 173.423 44.7783C174.064 44.1208 174.705 43.4633 175.365 42.7858C176.201 41.9076 176.201 41.9076 177.053 41.0117C178.867 39.8859 178.867 39.8859 181.474 40.1314Z" fill="#3C83F3"/>
<path d="M302.43 74.3859C303.108 74.3848 303.786 74.3836 304.484 74.3824C310.974 74.4412 317.231 74.5494 322.344 78.9875C325.246 82.2581 327.462 85.8804 329.584 89.6921C331.625 93.1814 334.182 96.2074 336.742 99.3234C337.635 100.46 338.524 101.599 339.41 102.741C340.965 104.731 342.529 106.714 344.105 108.687C345.07 109.899 345.07 109.899 346.055 111.136C346.605 111.822 347.156 112.508 347.723 113.214C348.867 114.886 348.867 114.886 348.867 116.886C344.347 117.119 339.829 117.261 335.305 117.386C334.028 117.453 332.751 117.52 331.436 117.589C322.164 117.782 322.164 117.782 318.594 115.316C316.784 113.269 315.326 111.193 313.867 108.886C312.921 107.669 311.965 106.46 310.996 105.261C310.138 104.138 309.282 103.013 308.43 101.886C307.762 101.01 307.762 101.01 307.08 100.116C306.007 98.7081 304.937 97.2973 303.867 95.8859C299.658 97.2889 298.053 100.352 295.555 103.823C294.481 105.287 293.405 106.749 292.328 108.21C291.764 108.976 291.201 109.743 290.62 110.532C287.703 114.449 284.691 118.291 281.68 122.136C277.863 127.02 274.069 131.914 270.367 136.886C266.666 141.858 262.87 146.751 259.055 151.636C254.598 157.342 250.193 163.08 245.867 168.886C241.027 175.382 236.074 181.784 231.085 188.166C226.717 193.764 222.444 199.426 218.202 205.119C214.483 210.097 210.667 214.99 206.813 219.864C199.072 228.827 199.072 228.827 193.073 238.773C191.904 241.167 191.067 242.345 188.867 243.886C183.412 244.779 178.061 244.544 172.555 244.323C171.036 244.288 169.517 244.256 167.998 244.228C164.286 244.151 160.577 244.03 156.867 243.886C155.574 241.299 155.534 239.135 155.295 236.246C155.195 235.065 155.095 233.883 154.992 232.665C154.887 231.382 154.783 230.099 154.676 228.777C154.566 227.462 154.457 226.147 154.344 224.793C154.112 222.005 153.883 219.218 153.656 216.43C153.365 212.868 153.069 209.306 152.771 205.744C152.542 202.999 152.315 200.254 152.089 197.508C151.928 195.56 151.766 193.611 151.604 191.662C151.507 190.468 151.41 189.274 151.31 188.043C151.224 186.997 151.139 185.95 151.05 184.872C150.866 181.868 150.835 178.894 150.867 175.886C149.837 176.336 149.837 176.336 148.785 176.796C147.884 177.176 146.983 177.557 146.055 177.948C145.161 178.331 144.268 178.714 143.348 179.109C140.867 179.886 140.867 179.886 137.867 178.886C137.867 175.444 138.427 173.399 140.68 170.777C142.117 169.37 143.575 167.983 145.055 166.62C146.949 165.002 146.949 165.002 147.867 162.886C148.527 162.886 149.187 162.886 149.867 162.886C150.197 161.896 150.527 160.906 150.867 159.886C156.556 158.906 162.04 158.766 167.805 158.823C168.679 158.828 169.554 158.832 170.455 158.837C172.592 158.849 174.73 158.867 176.867 158.886C178.557 167.596 179.821 176.342 180.992 185.136C181.176 186.472 181.359 187.808 181.543 189.144C181.714 190.425 181.886 191.706 182.062 193.027C182.217 194.177 182.372 195.327 182.532 196.512C182.878 199.992 182.924 203.391 182.867 206.886C191.524 198.428 198.844 188.715 206.281 179.191C208.456 176.406 210.654 173.641 212.867 170.886C215.995 166.987 219.093 163.067 222.18 159.136C222.646 158.541 223.113 157.947 223.594 157.335C225.919 154.373 228.241 151.408 230.559 148.441C235.996 141.488 241.518 134.613 247.101 127.777C251.257 122.674 255.271 117.479 259.262 112.245C262.828 107.609 266.547 103.095 270.246 98.5636C277.159 90.637 277.159 90.637 282.879 81.9113C287.424 74.0993 294.046 74.2974 302.43 74.3859Z" fill="white"/>
<path d="M666.867 123.886C674.127 123.886 681.387 123.886 688.867 123.886C687.742 134.01 687.742 134.01 686.827 138.131C686.622 139.066 686.417 140 686.205 140.963C685.983 141.955 685.76 142.946 685.531 143.968C685.296 145.036 685.061 146.105 684.818 147.205C684.047 150.704 683.269 154.201 682.492 157.698C681.402 162.634 680.316 167.57 679.23 172.507C678.953 173.768 678.676 175.029 678.39 176.328C676.437 185.225 674.533 194.132 672.66 203.046C672.407 204.251 672.154 205.456 671.893 206.698C670.676 212.496 669.465 218.296 668.258 224.096C667.822 226.18 667.386 228.263 666.949 230.347C666.752 231.305 666.554 232.262 666.351 233.249C666.078 234.547 666.078 234.547 665.8 235.872C665.643 236.627 665.486 237.383 665.324 238.162C664.867 239.886 664.867 239.886 663.867 240.886C662.305 240.973 660.74 240.993 659.176 240.984C658.232 240.98 657.287 240.977 656.314 240.974C655.321 240.965 654.328 240.957 653.305 240.948C652.308 240.944 651.311 240.939 650.283 240.935C647.811 240.923 645.339 240.905 642.867 240.886C643.197 237.586 643.527 234.286 643.867 230.886C643.287 231.429 642.707 231.971 642.109 232.53C632.851 241.009 625.927 243.272 613.449 243.167C605.716 242.56 599.242 239.511 593.867 233.886C586.246 222.422 585.114 210.25 587.484 196.866C591.258 180.922 600.457 165.807 614.605 157.066C623.26 152.551 633.799 150.189 643.422 152.499C650.02 154.775 653.779 158.309 657.867 163.886C661.351 150.65 664.141 137.296 666.867 123.886ZM616.867 180.886C611.401 187.93 609.513 195.19 609.555 204.011C609.539 204.701 609.522 205.39 609.506 206.101C609.502 210.565 610.159 213.331 612.867 216.886C618.11 221.604 622.151 222.25 629.02 222.159C635.698 221.518 640.732 217.87 645.262 213.081C651.724 204.244 653.719 193.596 652.867 182.886C651.104 177.597 648.256 175.086 643.867 171.886C633.106 168.299 624.163 173.059 616.867 180.886Z" fill="#FEFEFE"/>
<path d="M314.867 158.886C320.655 163.755 324.347 170.524 325.079 178.065C325.219 180.55 325.282 183.022 325.305 185.511C325.315 186.31 325.325 187.11 325.335 187.934C325.324 188.715 325.313 189.495 325.301 190.3C325.291 190.99 325.281 191.681 325.271 192.392C324.683 196.022 323.158 199.443 321.867 202.886C301.737 203.216 281.607 203.546 260.867 203.886C261.477 212.585 261.477 212.585 265.867 218.886C271.792 222.589 278.02 222.793 284.867 221.886C290.724 220.112 294.456 218.001 297.367 212.573C298.688 210.491 298.688 210.491 300.867 208.886C306.781 207.834 312.915 208.437 318.867 208.886C319.867 211.886 319.867 211.886 318.934 214.269C311.7 227.457 302.906 235.711 288.789 241.05C276.962 244.434 264.512 244.272 253.465 238.667C246.637 234.577 242.879 229.198 239.555 222.073C236.253 206.764 238.601 191.778 246.434 178.163C255.451 164.627 267.001 155.834 282.867 152.198C294.341 151.003 305.042 152.494 314.867 158.886ZM268.805 179.448C266.579 182.47 265.805 184.136 264.867 187.886C277.737 187.886 290.607 187.886 303.867 187.886C303.227 179.197 303.227 179.197 298.867 172.886C288.643 165.583 276.056 170.481 268.805 179.448Z" fill="white"/>
<path d="M576.895 159.081C583.957 165.542 587.03 173.663 587.84 183.023C587.906 189.94 586.963 196.694 583.867 202.886C563.737 203.216 543.607 203.546 522.867 203.886C523.567 213.18 523.567 213.18 528.867 219.636C534.06 222.881 539.964 222.396 545.867 221.886C552.668 220.247 557.013 217.729 560.867 211.886C561.197 210.896 561.527 209.906 561.867 208.886C564.826 208.859 567.784 208.839 570.742 208.823C571.584 208.815 572.426 208.807 573.293 208.798C574.099 208.795 574.904 208.792 575.734 208.788C576.478 208.783 577.222 208.778 577.988 208.772C579.867 208.886 579.867 208.886 581.867 209.886C579.093 220.704 570.57 230.463 561.387 236.523C549.438 242.848 535.733 245.22 522.492 241.761C512.386 238.135 506.363 232.173 501.758 222.573C497.382 209.37 500.307 194.878 505.992 182.636C509.443 176.143 513.604 170.988 518.867 165.886C519.431 165.314 519.994 164.741 520.574 164.152C535.308 150.243 560.147 146.863 576.895 159.081ZM530.023 180.237C527.46 183.703 527.46 183.703 526.867 187.886C539.737 187.886 552.607 187.886 565.867 187.886C565.227 179.197 565.227 179.197 560.867 172.886C550.297 165.336 537.284 170.908 530.023 180.237Z" fill="#FEFEFE"/>
<path d="M451.672 121.691C452.758 121.695 452.758 121.695 453.866 121.699C456.158 121.71 458.45 121.735 460.742 121.761C462.305 121.771 463.867 121.78 465.43 121.788C469.242 121.81 473.055 121.845 476.867 121.886C476.557 123.97 476.244 126.053 475.93 128.136C475.756 129.296 475.582 130.456 475.402 131.652C474.994 134.117 474.528 136.48 473.867 138.886C472.554 138.935 471.24 138.984 469.887 139.034C468.151 139.109 466.415 139.185 464.68 139.261C463.383 139.307 463.383 139.307 462.061 139.355C460.799 139.413 460.799 139.413 459.512 139.472C458.357 139.519 458.357 139.519 457.179 139.567C454.339 139.864 454.339 139.864 449.867 141.886C448.877 145.846 447.887 149.806 446.867 153.886C455.447 153.886 464.027 153.886 472.867 153.886C471.547 160.156 470.227 166.426 468.867 172.886C458.967 173.216 449.067 173.546 438.867 173.886C439.857 174.876 440.847 175.866 441.867 176.886C441.813 179.372 441.813 179.372 441.215 182.305C441.004 183.378 440.794 184.452 440.577 185.557C440.343 186.656 440.108 187.754 439.867 188.886C439.666 189.887 439.464 190.888 439.257 191.92C438.626 195.011 437.968 198.095 437.301 201.179C437.062 202.292 436.823 203.404 436.577 204.551C436.076 206.876 435.575 209.201 435.072 211.526C434.299 215.101 433.533 218.678 432.768 222.255C432.279 224.521 431.79 226.788 431.301 229.054C431.072 230.127 430.842 231.199 430.606 232.305C430.393 233.287 430.179 234.269 429.959 235.281C429.678 236.583 429.678 236.583 429.392 237.91C428.867 239.886 428.867 239.886 427.867 240.886C426.305 240.973 424.74 240.993 423.176 240.984C422.232 240.98 421.287 240.977 420.314 240.974C419.321 240.965 418.328 240.957 417.305 240.948C416.308 240.944 415.311 240.939 414.283 240.935C411.811 240.923 409.339 240.906 406.867 240.886C407.481 234.61 408.441 228.543 409.753 222.378C409.942 221.474 410.131 220.571 410.325 219.64C410.945 216.679 411.572 213.72 412.199 210.761C412.637 208.688 413.074 206.615 413.511 204.542C414.427 200.207 415.346 195.873 416.268 191.54C417.444 186.005 418.608 180.466 419.767 174.927C420.666 170.648 421.573 166.371 422.483 162.094C422.916 160.054 423.345 158.013 423.771 155.971C424.369 153.11 424.979 150.252 425.593 147.394C425.764 146.561 425.935 145.729 426.111 144.871C427.983 136.286 430.315 128.871 437.867 123.886C442.514 121.97 446.709 121.616 451.672 121.691Z" fill="#FEFEFE"/>
<path d="M336.867 153.886C344.127 153.886 351.387 153.886 358.867 153.886C358.537 156.856 358.207 159.826 357.867 162.886C358.629 162.163 358.629 162.163 359.406 161.425C360.095 160.793 360.783 160.162 361.492 159.511C362.165 158.884 362.838 158.258 363.531 157.612C368.78 153.733 373.987 153.614 380.242 153.761C381.346 153.774 381.346 153.774 382.473 153.788C384.271 153.812 386.069 153.847 387.867 153.886C387.228 157.366 386.58 160.845 385.93 164.323C385.747 165.317 385.565 166.31 385.377 167.333C385.2 168.277 385.022 169.222 384.84 170.195C384.596 171.506 384.596 171.506 384.348 172.845C383.867 174.886 383.867 174.886 382.867 175.886C381.294 176.077 379.714 176.209 378.133 176.316C377.166 176.389 376.199 176.463 375.203 176.538C373.162 176.686 371.12 176.826 369.078 176.96C361.932 177.394 361.932 177.394 355.867 180.886C352.634 185.299 351.771 189.851 350.711 195.105C350.523 195.999 350.334 196.893 350.14 197.815C349.54 200.67 348.953 203.528 348.367 206.386C347.78 209.208 347.189 212.03 346.599 214.851C346.218 216.674 345.838 218.496 345.459 220.319C344.026 227.2 342.484 234.046 340.867 240.886C333.607 240.886 326.347 240.886 318.867 240.886C320.214 232.496 321.782 224.189 323.547 215.878C323.801 214.673 324.055 213.467 324.317 212.225C324.852 209.689 325.388 207.152 325.925 204.616C326.735 200.793 327.542 196.968 328.348 193.144C331.113 180.04 333.931 166.952 336.867 153.886Z" fill="white"/>
<path d="M481.867 153.886C489.127 153.886 496.387 153.886 503.867 153.886C494.313 201.089 494.313 201.089 489.822 221.978C489.477 223.582 489.134 225.187 488.792 226.792C488.319 229.001 487.842 231.209 487.363 233.417C487.097 234.65 486.831 235.883 486.556 237.153C485.867 239.886 485.867 239.886 484.867 240.886C483.305 240.973 481.74 240.993 480.176 240.984C479.232 240.98 478.287 240.977 477.314 240.974C476.321 240.965 475.328 240.957 474.305 240.948C473.308 240.944 472.311 240.939 471.283 240.935C468.811 240.923 466.339 240.906 463.867 240.886C464.586 232.004 466.555 223.398 468.43 214.706C468.785 213.045 469.14 211.383 469.494 209.722C470.235 206.257 470.978 202.792 471.724 199.328C472.679 194.887 473.63 190.445 474.578 186.002C475.31 182.579 476.043 179.156 476.776 175.734C477.128 174.095 477.478 172.456 477.829 170.818C478.318 168.534 478.809 166.251 479.301 163.968C479.445 163.292 479.59 162.616 479.738 161.919C480.331 159.178 480.979 156.55 481.867 153.886Z" fill="white"/>
<path d="M392.867 153.886C399.797 153.886 406.727 153.886 413.867 153.886C413.245 160.108 412.599 165.93 411.301 171.982C411.146 172.723 410.992 173.464 410.832 174.228C410.328 176.637 409.817 179.045 409.305 181.452C408.949 183.14 408.595 184.827 408.24 186.514C407.5 190.029 406.757 193.543 406.011 197.056C405.053 201.568 404.103 206.081 403.156 210.594C402.426 214.068 401.693 217.542 400.958 221.015C400.606 222.68 400.255 224.345 399.905 226.011C399.419 228.326 398.927 230.641 398.434 232.955C398.289 233.646 398.145 234.337 397.996 235.05C396.982 239.772 396.982 239.772 395.867 240.886C394.232 240.973 392.594 240.993 390.957 240.984C389.968 240.98 388.978 240.977 387.959 240.974C386.918 240.965 385.877 240.957 384.805 240.948C383.76 240.944 382.715 240.939 381.639 240.935C379.048 240.923 376.458 240.906 373.867 240.886C376.194 229.837 378.523 218.789 380.856 207.742C381.939 202.612 383.021 197.483 384.101 192.353C385.143 187.405 386.187 182.458 387.233 177.511C387.632 175.621 388.031 173.73 388.428 171.839C388.983 169.197 389.542 166.556 390.101 163.916C390.266 163.128 390.431 162.34 390.6 161.529C391.753 156.114 391.753 156.114 392.867 153.886Z" fill="white"/>
<path d="M330.867 76.8859C336.551 75.9161 342.274 75.0987 347.867 76.8859C352.591 80.4148 355.502 85.7736 358.521 90.7394C360.528 93.9389 362.835 96.8674 365.18 99.8234C365.978 100.857 366.776 101.891 367.598 102.956C370.682 106.937 373.769 110.916 376.867 114.886C376.372 115.876 376.372 115.876 375.867 116.886C362.96 118.082 362.96 118.082 358.734 115.667C356.867 113.527 355.4 111.28 353.867 108.886C352.489 107.01 351.081 105.16 349.672 103.308C348.106 101.247 346.564 99.1693 345.023 97.089C341.515 92.381 337.87 87.7851 334.169 83.2272C330.867 79.1019 330.867 79.1019 330.867 76.8859Z" fill="white"/>
<path d="M563.176 252.655C566.92 254.38 569.919 256.112 571.867 259.886C571.867 260.876 571.867 261.866 571.867 262.886C566.086 263.339 564.27 262.408 559.867 258.886C555.982 258.4 553.635 258.544 550.055 260.136C547.669 262.044 546.755 262.979 545.867 265.886C545.416 270.847 545.631 274.003 548.867 277.886C552.13 280.061 554.058 280.902 557.992 280.823C561.297 279.746 562.719 278.59 564.867 275.886C565.197 274.896 565.527 273.906 565.867 272.886C561.907 272.886 557.947 272.886 553.867 272.886C553.867 271.236 553.867 269.586 553.867 267.886C560.467 267.886 567.067 267.886 573.867 267.886C572.866 275.892 572.035 278.628 566.68 284.136C562.178 286.937 557.82 288.265 552.496 287.581C546.602 285.971 543.119 283.005 539.867 277.886C537.547 273.144 537.545 268.938 538.867 263.886C540.745 258.691 543.793 255.464 548.594 252.769C553.479 250.872 558.233 251.008 563.176 252.655Z" fill="#3C83F3"/>
<path d="M220.867 119.886C224.484 122.733 226.768 125.378 227.867 129.886C227.537 131.866 227.207 133.846 226.867 135.886C217.462 136.381 217.462 136.381 207.867 136.886C209.187 138.206 210.507 139.526 211.867 140.886C215.566 140.738 217.225 140.528 219.867 137.886C223.492 137.761 223.492 137.761 226.867 137.886C222.987 145.369 222.987 145.369 218.867 146.886C213.932 147.586 209.956 147.4 205.43 145.261C201.491 141.61 199.737 138.235 199.492 132.886C199.722 127.654 201.499 124.184 205.305 120.573C210.593 117.091 215.085 117.79 220.867 119.886ZM207.867 126.886C207.537 127.876 207.207 128.866 206.867 129.886C211.487 129.886 216.107 129.886 220.867 129.886C218.542 124.895 218.542 124.895 215.492 123.886C212.099 123.886 210.523 124.82 207.867 126.886Z" fill="#3C83F3"/>
<path d="M169.867 109.886C171.847 109.886 173.827 109.886 175.867 109.886C175.867 113.516 175.867 117.146 175.867 120.886C176.857 120.226 177.847 119.566 178.867 118.886C182.927 118.222 187.056 118.009 190.82 119.831C193.098 121.59 194.656 123.205 195.516 125.98C196.009 130.061 195.972 134.092 195.93 138.198C195.925 139.034 195.921 139.87 195.916 140.732C195.904 142.783 195.886 144.835 195.867 146.886C193.557 146.886 191.247 146.886 188.867 146.886C188.807 145.621 188.746 144.357 188.684 143.054C188.599 141.394 188.515 139.734 188.43 138.073C188.39 137.24 188.351 136.407 188.311 135.548C188.269 134.746 188.227 133.943 188.184 133.116C188.147 132.378 188.11 131.64 188.073 130.879C187.919 128.678 187.919 128.678 186.867 125.886C182.865 125.794 182.865 125.794 178.867 125.886C177.294 127.459 177.538 129.178 177.332 131.359C177.245 132.258 177.158 133.157 177.068 134.083C176.981 135.029 176.894 135.974 176.805 136.948C176.714 137.898 176.623 138.847 176.529 139.825C176.305 142.179 176.084 144.532 175.867 146.886C173.887 146.886 171.907 146.886 169.867 146.886C169.867 134.676 169.867 122.466 169.867 109.886Z" fill="#3C83F3"/>
<path d="M606.867 258.886C609.177 258.886 611.487 258.886 613.867 258.886C616.177 264.826 618.487 270.766 620.867 276.886C621.63 275.03 622.393 273.173 623.18 271.261C624.934 267.045 626.737 262.923 628.867 258.886C630.847 258.886 632.827 258.886 634.867 258.886C634.168 263.672 632.362 267.831 630.488 272.249C630.157 273.041 629.825 273.833 629.484 274.649C628.428 277.167 627.367 279.683 626.305 282.198C625.586 283.91 624.868 285.621 624.15 287.333C622.394 291.519 620.632 295.703 618.867 299.886C616.557 299.886 614.247 299.886 611.867 299.886C612.072 299.317 612.277 298.749 612.488 298.163C612.758 297.391 613.027 296.619 613.305 295.823C613.572 295.069 613.838 294.315 614.113 293.538C616.518 285.077 614.938 280.47 611.43 272.636C610.572 270.674 609.719 268.711 608.871 266.745C608.488 265.884 608.104 265.022 607.709 264.135C606.867 261.886 606.867 261.886 606.867 258.886Z" fill="#3C83F3"/>
<path d="M577.867 258.886C579.847 258.886 581.827 258.886 583.867 258.886C583.916 259.899 583.965 260.912 584.016 261.956C584.091 263.308 584.166 264.659 584.242 266.011C584.273 266.676 584.304 267.341 584.336 268.027C584.586 272.284 585.342 275.907 586.867 279.886C590.154 280.685 591.577 280.983 594.867 279.886C596.014 277.593 596.064 276.087 596.184 273.534C596.225 272.684 596.267 271.833 596.311 270.956C596.35 270.067 596.389 269.177 596.43 268.261C596.473 267.364 596.516 266.467 596.561 265.542C596.667 263.324 596.769 261.105 596.867 258.886C598.867 258.843 600.868 258.845 602.867 258.886C603.867 259.886 603.867 259.886 603.981 262.478C603.975 263.604 603.97 264.73 603.965 265.89C603.962 267.105 603.958 268.32 603.955 269.571C603.947 270.851 603.938 272.13 603.93 273.448C603.925 274.732 603.921 276.015 603.916 277.337C603.904 280.52 603.888 283.703 603.867 286.886C600.867 286.886 597.867 286.886 594.867 286.886C593.65 287.133 592.433 287.381 591.18 287.636C586.222 288.277 583.838 286.824 579.867 283.886C577.903 280.842 577.628 278.487 577.672 274.902C577.678 273.967 577.685 273.032 577.691 272.07C577.708 271.101 577.725 270.133 577.742 269.136C577.751 268.152 577.76 267.169 577.77 266.155C577.793 263.732 577.826 261.309 577.867 258.886Z" fill="#3C83F3"/>
<path d="M401.908 121.772C402.783 121.778 403.658 121.783 404.559 121.788C405.503 121.791 406.447 121.795 407.42 121.798C408.413 121.806 409.406 121.815 410.43 121.823C411.427 121.828 412.424 121.832 413.451 121.837C415.923 121.849 418.395 121.865 420.867 121.886C420.364 126.756 419.84 131.583 418.867 136.386C418.702 137.221 418.537 138.056 418.367 138.917C417.867 140.886 417.867 140.886 416.867 141.886C415.378 141.973 413.886 141.993 412.395 141.984C411.495 141.98 410.596 141.977 409.67 141.974C408.724 141.965 407.779 141.957 406.805 141.948C405.855 141.944 404.906 141.939 403.928 141.935C401.574 141.923 399.221 141.906 396.867 141.886C395.593 137.435 396.222 134.109 397.242 129.636C397.518 128.393 397.794 127.151 398.078 125.87C399.121 121.927 399.121 121.927 401.908 121.772Z" fill="white"/>
<path d="M488.867 121.886C495.797 121.886 502.727 121.886 509.867 121.886C508.734 133.217 508.734 133.217 507.867 136.948C507.702 137.682 507.537 138.415 507.367 139.171C506.867 140.886 506.867 140.886 505.867 141.886C504.378 141.973 502.886 141.993 501.395 141.984C500.495 141.98 499.596 141.977 498.67 141.974C497.724 141.965 496.779 141.957 495.805 141.948C494.855 141.944 493.906 141.939 492.928 141.935C490.574 141.923 488.221 141.906 485.867 141.886C484.493 137.487 485.626 133.957 486.805 129.636C487.485 127.078 488.166 124.521 488.867 121.886Z" fill="white"/>
<path d="M651.867 258.886C655.305 260.573 655.305 260.573 657.867 262.886C658.742 265.636 658.742 265.636 658.867 267.886C655.992 268.011 655.992 268.011 652.867 267.886C652.207 267.226 651.547 266.566 650.867 265.886C647.784 265.719 647.784 265.719 644.867 265.886C644.867 266.546 644.867 267.206 644.867 267.886C645.699 268.2 646.53 268.515 647.387 268.839C648.473 269.267 649.56 269.695 650.68 270.136C652.298 270.762 652.298 270.762 653.949 271.402C656.956 272.931 658.255 273.957 659.867 276.886C659.795 280.331 659.242 282.309 657.367 285.198C653.698 287.675 650.252 288.084 645.867 287.886C641.689 286.416 639.059 284.782 636.867 280.886C636.867 279.896 636.867 278.906 636.867 277.886C640.18 277.698 640.18 277.698 643.867 277.886C644.887 278.865 645.889 279.865 646.867 280.886C649.993 281.136 649.993 281.136 652.867 280.886C652.537 279.896 652.207 278.906 651.867 277.886C649.152 276.484 649.152 276.484 645.93 275.323C640.058 273.077 640.058 273.077 637.867 270.886C637.42 266.865 637.186 264.748 639.742 261.511C643.609 258.554 647.104 258.25 651.867 258.886Z" fill="#3C83F3"/>
<path d="M139.867 111.886C148.117 111.886 156.367 111.886 164.867 111.886C164.867 113.536 164.867 115.186 164.867 116.886C161.897 116.886 158.927 116.886 155.867 116.886C155.867 126.786 155.867 136.686 155.867 146.886C153.887 146.886 151.907 146.886 149.867 146.886C149.867 136.986 149.867 127.086 149.867 116.886C146.567 116.886 143.267 116.886 139.867 116.886C139.867 115.236 139.867 113.586 139.867 111.886Z" fill="#3C83F3"/>
</svg>
